<svg width="160" height="4" viewBox="0 0 160 4" fill="none" xmlns="http://www.w3.org/2000/svg">
    <g clip-path="url(#clip0)">
        <path d="M0 2.88477C1.6758 2.88477 1.6758 0.115535 3.3516 0.115535C5.0274 0.115535 5.0274 2.88477 6.7032 2.88477C8.379 2.88477 8.379 0.115535 10.0548 0.115535C11.7306 0.115535 11.7306 2.88477 13.395 2.88477C15.0594 2.88477 15.0736 0.115535 16.7494 0.115535C18.4252 0.115535 18.4366 2.88477 20.1124 2.88477C21.7882 2.88477 21.7883 0.115535 23.4641 0.115535C25.1399 0.115535 25.1398 2.88477 26.8156 2.88477C28.4914 2.88477 28.4914 0.115535 30.1672 0.115535C31.843 0.115535 31.843 2.88477 33.5188 2.88477C35.1946 2.88477 35.1975 0.115535 36.8733 0.115535C38.5491 0.115535 38.5491 2.88477 40.2249 2.88477C41.9007 2.88477 41.9007 0.115535 43.5765 0.115535C45.2523 0.115535 45.2523 2.88477 46.9309 2.88477C48.6096 2.88477 48.6067 0.115535 50.2825 0.115535C51.9583 0.115535 51.9584 2.88477 53.6342 2.88477C55.31 2.88477 55.31 0.115535 56.9886 0.115535C58.6673 0.115535 58.6644 2.88477 60.3402 2.88477C62.016 2.88477 62.016 0.115535 63.6918 0.115535C65.3676 0.115535 65.3676 2.88477 67.0462 2.88477C68.7249 2.88477 68.722 0.115535 70.3978 0.115535C72.0736 0.115535 72.0736 2.88477 73.7523 2.88477C75.4309 2.88477 75.4281 0.115535 77.1039 0.115535C78.7797 0.115535 78.7797 2.88477 80.4555 2.88477C82.1313 2.88477 82.1342 0.115535 83.81 0.115535C85.4858 0.115535 85.5 2.88477 87.1615 2.88477C88.8231 2.88477 88.8402 0.115535 90.516 0.115535C92.1918 0.115535 92.1918 2.88477 93.8676 2.88477C95.5434 2.88477 95.5463 0.115535 97.2221 0.115535C98.8979 0.115535 98.895 2.88477 100.574 2.88477C102.252 2.88477 102.252 0.115535 103.928 0.115535C105.604 0.115535 105.604 2.88477 107.283 2.88477C108.961 2.88477 108.958 0.115535 110.634 0.115535C112.31 0.115535 112.31 2.88477 114 2.88477C115.69 2.88477 115.676 0.115535 117.352 0.115535C119.027 0.115535 119.027 2.88477 120.706 2.88477C122.385 2.88477 122.382 0.115535 124.058 0.115535C125.733 0.115535 125.719 2.88477 127.395 2.88477C129.071 2.88477 129.071 0.115535 130.747 0.115535C132.422 0.115535 132.425 2.88477 134.101 2.88477C135.777 2.88477 135.777 0.115535 137.455 0.115535C139.134 0.115535 139.131 2.88477 140.807 2.88477C142.483 2.88477 142.486 0.115535 144.162 0.115535C145.837 0.115535 145.84 2.88477 147.516 2.88477C149.192 2.88477 149.192 0.115535 150.87 0.115535C152.549 0.115535 152.546 2.88477 154.222 2.88477C155.898 2.88477 155.901 0.115535 157.577 0.115535C159.252 0.115535 159.252 2.88477 160.931 2.88477C162.61 2.88477 162.607 0.115535 164.285 0.115535C165.964 0.115535 165.964 2.88477 167.64 2.88477C169.316 2.88477 169.318 0.115535" stroke="#C22731" stroke-miterlimit="10"/>
    </g>
    <defs>
        <clipPath id="clip0">
            <rect width="171" height="10" fill="white" transform="matrix(4 0 0 -1 0 4)"/>
        </clipPath>
    </defs>
</svg>
