<svg xmlns="http://www.w3.org/2000/svg" width="48" height="48" version="1.1"><defs><linearGradient id="color-1" x1="13.277" x2="58.004" y1="13.277" y2="58.004" gradientUnits="userSpaceOnUse"><stop offset="0" stop-color="#000" stop-opacity=".15"/><stop offset="1" stop-color="#000" stop-opacity="0"/></linearGradient><filter id="dropshadow-base"><feColorMatrix type="matrix" values="0 0 0 0 0 0 0 0 0 0 0 0 0 0 0 0 0 0 .8 0"/><feOffset dx="0" dy="1"/><feGaussianBlur stdDeviation="1"/><feComposite in="SourceGraphic"/></filter><filter id="dropshadow-banner" width="120%" height="130%" x="-10%" y="-10%"><feColorMatrix type="matrix" values="0 0 0 0 0 0 0 0 0 0 0 0 0 0 0 0 0 0 .4 0"/><feOffset dx="0" dy="1"/><feGaussianBlur stdDeviation=".5"/><feComposite in="SourceGraphic"/></filter></defs><g fill="none" fill-rule="nonzero" stroke="none" stroke-dashoffset="0" stroke-linecap="butt" stroke-linejoin="miter" stroke-miterlimit="10" stroke-width="none" font-family="none" font-size="none" font-weight="none" text-anchor="none" style="mix-blend-mode:normal"><path id="base 1 5" fill="#6200ee" stroke-width="1" d="M7,43c-1.10457,0 -2,-0.89543 -2,-2v-34c0,-1.10457 0.89543,-2 2,-2h34c1.10457,0 2,0.89543 2,2v34c0,1.10457 -0.89543,2 -2,2z"/><path fill="url(#color-1)" stroke-width="1" d="M15.98128,27.43586v-0.25742l-2.36802,-2.36802c-0.20787,-0.20787 -0.33594,-0.49493 -0.33594,-0.81089c0,-0.61509 0.48532,-1.12062 1.0999,-1.14569h1.60406v-0.25742l-2.36802,-2.36802c-0.20787,-0.20787 -0.33594,-0.49493 -0.33594,-0.81089c0,-0.61509 0.48532,-1.12062 1.0999,-1.14569l1.60406,0.00024v-0.45837c-0.00026,-0.48603 0.19271,-0.95223 0.53638,-1.2959c0.34367,-0.34367 0.80987,-0.53664 1.2959,-0.53638h0.45837v-1.60406c0.02507,-0.61458 0.5306,-1.0999 1.14569,-1.0999c0.31597,0 0.60302,0.12807 0.81089,0.33594l2.36799,2.36799l0.25746,0.00003v-1.60406c0.02507,-0.61458 0.5306,-1.0999 1.14569,-1.0999c0.31597,0 0.60302,0.12807 0.81089,0.33594c0,0 0,0 0,0l2.36802,2.36802h0.25742v-1.60406c0.02507,-0.61458 0.5306,-1.0999 1.14569,-1.0999c0.31597,0 0.60302,0.12807 0.81089,0.33594l4.96567,4.96567c0.00967,0.00902 0.01918,0.01821 0.02853,0.02756l8.61323,8.61323v13.78018c0,1.10457 -0.89543,2 -2,2h-13.78012l-8.61338,-8.61338c-0.00919,-0.00919 -0.01823,-0.01854 -0.02711,-0.02804l-4.96614,-4.96614c-0.20787,-0.20787 -0.33594,-0.49493 -0.33594,-0.81089c0,-0.61509 0.48532,-1.12062 1.0999,-1.14569z"/><path fill="none" stroke-width="0" d="M15.98127,30.18561c0,1.01251 0.81978,1.83324 1.83229,1.83324h0.45837l-0.00024,1.60382c0.02507,0.61458 0.5306,1.0999 1.14569,1.0999c0.61509,0 1.12061,-0.48532 1.14569,-1.0999v-1.60406h2.29066v1.60406c0.02507,0.61458 0.5306,1.0999 1.14569,1.0999c0.61509,0 1.12061,-0.48532 1.14569,-1.0999v-1.60406h2.29066l0,1.60406c0.02507,0.61458 0.5306,1.0999 1.14569,1.0999c0.61509,0 1.12061,-0.48532 1.14569,-1.0999v-1.60406h0.45837c1.01247,0 1.83324,-0.82077 1.83324,-1.83324v-0.45837h1.60406c0.61458,-0.02507 1.0999,-0.5306 1.0999,-1.14569c0,-0.61509 -0.48532,-1.12061 -1.0999,-1.14569h-1.60406v-2.29042h1.60406c0.61458,-0.02507 1.0999,-0.5306 1.0999,-1.14569c0,-0.61509 -0.48532,-1.12061 -1.0999,-1.14569h-1.60406v-2.29066h1.60406c0.61458,-0.02507 1.0999,-0.5306 1.0999,-1.14569c0,-0.61509 -0.48532,-1.12061 -1.0999,-1.14569h-1.60406v-0.45837c0,-0.48612 -0.19317,-0.95231 -0.537,-1.29596c-0.34383,-0.34365 -0.81012,-0.53658 -1.29624,-0.53633h-0.45837l0.00024,-1.60382c-0.02507,-0.61458 -0.5306,-1.0999 -1.14569,-1.0999c-0.61509,0 -1.12061,0.48532 -1.14569,1.0999v1.60406h-2.29066v-1.60406c-0.02507,-0.61458 -0.5306,-1.0999 -1.14569,-1.0999c-0.61509,0 -1.12061,0.48532 -1.14569,1.0999v1.60406l-2.29066,-0.00024v-1.60382c-0.02507,-0.61458 -0.5306,-1.0999 -1.14569,-1.0999c-0.61509,0 -1.12061,0.48532 -1.14569,1.0999v1.60406h-0.45837c-0.48603,-0.00025 -0.95223,0.19271 -1.2959,0.53639c-0.34368,0.34368 -0.53664,0.80987 -0.53639,1.2959v0.45837l-1.60406,-0.00024c-0.61458,0.02507 -1.0999,0.5306 -1.0999,1.14569c0,0.61509 0.48532,1.12061 1.0999,1.14569h1.60406v2.29066l-1.60406,0c-0.61458,0.02507 -1.0999,0.5306 -1.0999,1.14569c0,0.61509 0.48532,1.12061 1.0999,1.14569h1.60406v2.29066h-1.60406c-0.61458,0.02507 -1.0999,0.5306 -1.0999,1.14569c0,0.61509 0.48532,1.12061 1.0999,1.14569h1.60406zM27.4367,21.57045v4.85743c0,0.55843 -0.4486,1.00798 -1.00798,1.00798h-4.85743c-0.26755,0.0007 -0.52434,-0.10528 -0.71352,-0.29446c-0.18919,-0.18919 -0.29516,-0.44598 -0.29446,-0.71352v-4.85743c0,-0.55843 0.4486,-1.00798 1.00798,-1.00798h4.85743c0.55843,0 1.00798,0.4486 1.00798,1.00798z"/><path fill="#fff" stroke-width="0" d="M15.98127,29.72724h-1.60406c-0.61458,-0.02507 -1.0999,-0.5306 -1.0999,-1.14569c0,-0.61509 0.48532,-1.12061 1.0999,-1.14569h1.60406v-2.29066h-1.60406c-0.61458,-0.02507 -1.0999,-0.5306 -1.0999,-1.14569c0,-0.61509 0.48532,-1.12061 1.0999,-1.14569l1.60406,0v-2.29066h-1.60406c-0.61458,-0.02507 -1.0999,-0.5306 -1.0999,-1.14569c0,-0.61509 0.48532,-1.12061 1.0999,-1.14569l1.60406,0.00024v-0.45837c-0.00025,-0.48603 0.19271,-0.95223 0.53639,-1.2959c0.34368,-0.34368 0.80987,-0.53664 1.2959,-0.53639h0.45837v-1.60406c0.02507,-0.61458 0.5306,-1.0999 1.14569,-1.0999c0.61509,0 1.12061,0.48532 1.14569,1.0999v1.60382l2.29066,0.00024v-1.60406c0.02507,-0.61458 0.5306,-1.0999 1.14569,-1.0999c0.61509,0 1.12061,0.48532 1.14569,1.0999v1.60406h2.29066v-1.60406c0.02507,-0.61458 0.5306,-1.0999 1.14569,-1.0999c0.61509,0 1.12061,0.48532 1.14569,1.0999l-0.00024,1.60382h0.45837c0.48612,-0.00025 0.95241,0.19268 1.29624,0.53633c0.34383,0.34365 0.537,0.80984 0.537,1.29596v0.45837h1.60406c0.61458,0.02507 1.0999,0.5306 1.0999,1.14569c0,0.61509 -0.48532,1.12061 -1.0999,1.14569h-1.60406v2.29066h1.60406c0.61458,0.02507 1.0999,0.5306 1.0999,1.14569c0,0.61509 -0.48532,1.12061 -1.0999,1.14569h-1.60406v2.29042h1.60406c0.61458,0.02507 1.0999,0.5306 1.0999,1.14569c0,0.61509 -0.48532,1.12061 -1.0999,1.14569h-1.60406v0.45837c0,1.01247 -0.82077,1.83324 -1.83324,1.83324h-0.45837v1.60406c-0.02507,0.61458 -0.5306,1.0999 -1.14569,1.0999c-0.61509,0 -1.12061,-0.48532 -1.14569,-1.0999l0,-1.60406h-2.29066v1.60406c-0.02507,0.61458 -0.5306,1.0999 -1.14569,1.0999c-0.61509,0 -1.12061,-0.48532 -1.14569,-1.0999v-1.60406h-2.29066v1.60406c-0.02507,0.61458 -0.5306,1.0999 -1.14569,1.0999c-0.61509,0 -1.12061,-0.48532 -1.14569,-1.0999l0.00024,-1.60382h-0.45837c-1.01251,0 -1.83229,-0.82073 -1.83229,-1.83324zM26.42872,20.56247h-4.85743c-0.55938,0 -1.00798,0.44955 -1.00798,1.00798v4.85743c-0.0007,0.26755 0.10528,0.52434 0.29446,0.71352c0.18919,0.18919 0.44598,0.29516 0.71352,0.29446h4.85743c0.55938,0 1.00798,-0.44955 1.00798,-1.00798v-4.85743c0,-0.55938 -0.44955,-1.00798 -1.00798,-1.00798z"/><path id="base 1 1 1" fill="none" stroke-width="1" d="M2,24c0,-12.15026 9.84974,-22 22,-22c12.15026,0 22,9.84974 22,22c0,12.15026 -9.84974,22 -22,22c-12.15026,0 -22,-9.84974 -22,-22z"/><rect width="44" height="22" x="2" y="2" fill="none" stroke-width="1"/><path fill="none" stroke-width="1" d="M2,24v-22h44v22z"/><path fill="none" stroke-width="1" d="M2,24v-22h44v22z"/><path fill="none" stroke-width="1" d="M2,24v-22h44v22z"/><path fill="none" stroke-width="1" d="M2,24v-22h44v22z"/></g></svg>
