<svg xmlns="http://www.w3.org/2000/svg" width="375" height="375" fill="none" viewBox="0 0 375 375"><g filter="url(#filter0_d_3_2)"><circle cx="188" cy="188" r="125" fill="#6200EE"/></g><path fill="#fff" d="M139.391 222.718H129.667C125.942 222.566 123 219.502 123 215.773C123 212.045 125.942 208.98 129.667 208.828H139.391V194.942H129.667C125.942 194.79 123 191.726 123 187.997C123 184.268 125.942 181.204 129.667 181.052H139.391V167.166H129.667C125.942 167.014 123 163.95 123 160.221C123 156.492 125.942 153.428 129.667 153.276L139.391 153.277V150.499C139.39 147.552 140.559 144.726 142.643 142.643C144.726 140.56 147.552 139.39 150.498 139.391H153.277V129.668C153.429 125.942 156.493 123 160.222 123C163.951 123 167.015 125.942 167.167 129.668V139.39L181.053 139.391V129.668C181.205 125.942 184.269 123 187.998 123C191.726 123 194.791 125.942 194.943 129.668V139.391H208.829V129.668C208.981 125.942 212.045 123 215.774 123C219.502 123 222.567 125.942 222.719 129.668L222.717 139.39H225.496C228.443 139.388 231.269 140.558 233.354 142.641C235.438 144.724 236.609 147.55 236.609 150.497V153.276H246.333C250.058 153.428 253 156.492 253 160.221C253 163.95 250.058 167.014 246.333 167.166H236.609V181.052H246.333C250.058 181.204 253 184.268 253 187.997C253 191.726 250.058 194.79 246.333 194.942H236.609V208.827H246.333C250.058 208.979 253 212.043 253 215.772C253 219.501 250.058 222.565 246.333 222.717H236.609V225.496C236.609 231.633 231.633 236.609 225.496 236.609H222.717V246.332C222.565 250.058 219.501 253 215.772 253C212.044 253 208.979 250.058 208.827 246.332V236.609H194.941V246.332C194.789 250.058 191.725 253 187.996 253C184.268 253 181.203 250.058 181.051 246.332V236.609H167.166V246.332C167.014 250.058 163.949 253 160.22 253C156.492 253 153.427 250.058 153.275 246.332L153.277 236.61H150.498C144.361 236.61 139.391 231.635 139.391 225.497V222.718ZM202.723 167.162H173.277C169.886 167.162 167.167 169.887 167.167 173.272V202.718C167.163 204.34 167.805 205.896 168.952 207.043C170.099 208.19 171.655 208.832 173.277 208.828H202.723C206.113 208.828 208.833 206.103 208.833 202.718V173.272C208.833 169.881 206.108 167.162 202.723 167.162Z"/><defs><filter id="filter0_d_3_2" width="258" height="258" x="59" y="63" color-interpolation-filters="sRGB" filterUnits="userSpaceOnUse"><feFlood flood-opacity="0" result="BackgroundImageFix"/><feColorMatrix in="SourceAlpha" result="hardAlpha" type="matrix" values="0 0 0 0 0 0 0 0 0 0 0 0 0 0 0 0 0 0 127 0"/><feOffset dy="4"/><feGaussianBlur stdDeviation="2"/><feComposite in2="hardAlpha" operator="out"/><feColorMatrix type="matrix" values="0 0 0 0 0 0 0 0 0 0 0 0 0 0 0 0 0 0 0.25 0"/><feBlend in2="BackgroundImageFix" mode="normal" result="effect1_dropShadow_3_2"/><feBlend in="SourceGraphic" in2="effect1_dropShadow_3_2" mode="normal" result="shape"/></filter></defs></svg>