<?xml version="1.0" encoding="UTF-8"?>
<svg width="44px" height="44px" viewBox="0 0 44 44" version="1.1" xmlns="http://www.w3.org/2000/svg" xmlns:xlink="http://www.w3.org/1999/xlink">
    <title>未命名2</title>
    <defs>
        <path d="M13.98127,27.72724 L12.37721,27.72724 C11.76263,27.70217 11.27731,27.19664 11.27731,26.58155 C11.27731,25.96646 11.76263,25.46094 12.37721,25.43586 L13.98127,25.43586 L13.98127,23.1452 L12.37721,23.1452 C11.76263,23.12013 11.27731,22.6146 11.27731,21.99951 C11.27731,21.38442 11.76263,20.8789 12.37721,20.85382 L13.98127,20.85382 L13.98127,18.56316 L12.37721,18.56316 C11.76263,18.53809 11.27731,18.03256 11.27731,17.41747 C11.27731,16.80238 11.76263,16.29686 12.37721,16.27178 L13.98127,16.27202 L13.98127,15.81365 C13.98102,15.32762 14.17398,14.86142 14.51766,14.51775 C14.86134,14.17407 15.32753,13.98111 15.81356,13.98136 L16.27193,13.98136 L16.27193,12.3773 C16.297,11.76272 16.80253,11.2774 17.41762,11.2774 C18.03271,11.2774 18.53823,11.76272 18.56331,12.3773 L18.56331,13.98112 L20.85397,13.98136 L20.85397,12.3773 C20.87904,11.76272 21.38457,11.2774 21.99966,11.2774 C22.61475,11.2774 23.12027,11.76272 23.14535,12.3773 L23.14535,13.98136 L25.43601,13.98136 L25.43601,12.3773 C25.46108,11.76272 25.96661,11.2774 26.5817,11.2774 C27.19679,11.2774 27.70231,11.76272 27.72739,12.3773 L27.72715,13.98112 L28.18552,13.98112 C28.67164,13.98087 29.13793,14.1738 29.48176,14.51745 C29.82559,14.8611 30.01876,15.32729 30.01876,15.81341 L30.01876,16.27178 L31.62282,16.27178 C32.2374,16.29685 32.72272,16.80238 32.72272,17.41747 C32.72272,18.03256 32.2374,18.53808 31.62282,18.56316 L30.01876,18.56316 L30.01876,20.85382 L31.62282,20.85382 C32.2374,20.87889 32.72272,21.38442 32.72272,21.99951 C32.72272,22.6146 32.2374,23.12012 31.62282,23.1452 L30.01876,23.1452 L30.01876,25.43562 L31.62282,25.43562 C32.2374,25.46069 32.72272,25.96622 32.72272,26.58131 C32.72272,27.1964 32.2374,27.70192 31.62282,27.727 L30.01876,27.727 L30.01876,28.18537 C30.01876,29.19784 29.19799,30.01861 28.18552,30.01861 L27.72715,30.01861 L27.72715,31.62267 C27.70208,32.23725 27.19655,32.72257 26.58146,32.72257 C25.96637,32.72257 25.46085,32.23725 25.43577,31.62267 L25.43577,30.01861 L23.14511,30.01861 L23.14511,31.62267 C23.12004,32.23725 22.61451,32.72257 21.99942,32.72257 C21.38433,32.72257 20.87881,32.23725 20.85373,31.62267 L20.85373,30.01861 L18.56307,30.01861 L18.56307,31.62267 C18.538,32.23725 18.03247,32.72257 17.41738,32.72257 C16.80229,32.72257 16.29677,32.23725 16.27169,31.62267 L16.27193,30.01885 L15.81356,30.01885 C14.80105,30.01885 13.98127,29.19812 13.98127,28.18561 L13.98127,27.72724 Z M24.42872,18.56247 L19.57129,18.56247 C19.01191,18.56247 18.5633066,19.01202 18.5633066,19.57045 L18.5633066,24.42788 C18.56261,24.69543 18.66859,24.95222 18.85777,25.1414 C19.04696,25.33059 19.30375,25.43656 19.57129,25.4358634 L24.42872,25.4358634 C24.9881,25.4358634 25.4367,24.98631 25.4367,24.42788 L25.4367,19.57045 C25.4367,19.01107 24.98715,18.56247 24.42872,18.56247 Z" id="path-1"></path>
        <filter x="-32.6%" y="-23.3%" width="165.3%" height="165.3%" filterUnits="objectBoundingBox" id="filter-2">
            <feOffset dx="0" dy="2" in="SourceAlpha" result="shadowOffsetOuter1"></feOffset>
            <feGaussianBlur stdDeviation="2" in="shadowOffsetOuter1" result="shadowBlurOuter1"></feGaussianBlur>
            <feColorMatrix values="0 0 0 0 0   0 0 0 0 0   0 0 0 0 0  0 0 0 0.5 0" type="matrix" in="shadowBlurOuter1"></feColorMatrix>
        </filter>
    </defs>
    <g id="页面-1" stroke="none" stroke-width="1" fill="none" fill-rule="evenodd">
        <g id="icon" transform="translate(0.000000, 0.000000)">
            <path d="M13.98127,28.18561 C13.98127,29.19812 14.80105,30.01885 15.81356,30.01885 L16.27193,30.01885 L16.27169,31.62267 C16.29676,32.23725 16.80229,32.72257 17.41738,32.72257 C18.03247,32.72257 18.53799,32.23725 18.56307,31.62267 L18.56307,30.01861 L20.85373,30.01861 L20.85373,31.62267 C20.8788,32.23725 21.38433,32.72257 21.99942,32.72257 C22.61451,32.72257 23.12003,32.23725 23.14511,31.62267 L23.14511,30.01861 L25.43577,30.01861 L25.43577,31.62267 C25.46084,32.23725 25.96637,32.72257 26.58146,32.72257 C27.19655,32.72257 27.70207,32.23725 27.72715,31.62267 L27.72715,30.01861 L28.18552,30.01861 C29.19799,30.01861 30.01876,29.19784 30.01876,28.18537 L30.01876,27.727 L31.62282,27.727 C32.2374,27.70193 32.72272,27.1964 32.72272,26.58131 C32.72272,25.96622 32.2374,25.4607 31.62282,25.43562 L30.01876,25.43562 L30.01876,23.1452 L31.62282,23.1452 C32.2374,23.12013 32.72272,22.6146 32.72272,21.99951 C32.72272,21.38442 32.2374,20.8789 31.62282,20.85382 L30.01876,20.85382 L30.01876,18.56316 L31.62282,18.56316 C32.2374,18.53809 32.72272,18.03256 32.72272,17.41747 C32.72272,16.80238 32.2374,16.29686 31.62282,16.27178 L30.01876,16.27178 L30.01876,15.81341 C30.01876,15.32729 29.82559,14.8611 29.48176,14.51745 C29.13793,14.1738 28.67164,13.98087 28.18552,13.98112 L27.72715,13.98112 L27.72739,12.3773 C27.70232,11.76272 27.19679,11.2774 26.5817,11.2774 C25.96661,11.2774 25.46109,11.76272 25.43601,12.3773 L25.43601,13.98136 L23.14535,13.98136 L23.14535,12.3773 C23.12028,11.76272 22.61475,11.2774 21.99966,11.2774 C21.38457,11.2774 20.87905,11.76272 20.85397,12.3773 L20.85397,13.98136 L18.56331,13.98112 L18.56331,12.3773 C18.53824,11.76272 18.03271,11.2774 17.41762,11.2774 C16.80253,11.2774 16.29701,11.76272 16.27193,12.3773 L16.27193,13.98136 L15.81356,13.98136 C15.32753,13.98111 14.86133,14.17407 14.51766,14.51775 C14.17398,14.86143 13.98102,15.32762 13.98127,15.81365 L13.98127,16.27202 L12.37721,16.27178 C11.76263,16.29685 11.27731,16.80238 11.27731,17.41747 C11.27731,18.03256 11.76263,18.53808 12.37721,18.56316 L13.98127,18.56316 L13.98127,20.85382 L12.37721,20.85382 C11.76263,20.87889 11.27731,21.38442 11.27731,21.99951 C11.27731,22.6146 11.76263,23.12012 12.37721,23.1452 L13.98127,23.1452 L13.98127,25.43586 L12.37721,25.43586 C11.76263,25.46093 11.27731,25.96646 11.27731,26.58155 C11.27731,27.19664 11.76263,27.70216 12.37721,27.72724 L13.98127,27.72724 L13.98127,28.18561 Z M25.4367,19.57045 L25.4367,24.42788 C25.4367,24.98631 24.9881,25.4358634 24.42872,25.4358634 L19.57129,25.4358634 C19.30374,25.43656 19.04695,25.33058 18.85777,25.1414 C18.66858,24.95221 18.56261,24.69542 18.5633066,24.42788 L18.5633066,19.57045 C18.5633066,19.01202 19.01191,18.56247 19.57129,18.56247 L24.42872,18.56247 C24.98715,18.56247 25.4367,19.01107 25.4367,19.57045 Z" id="形状"></path>
            <g id="形状" fill-rule="nonzero">
                <use fill="black" fill-opacity="1" filter="url(#filter-2)" xlink:href="#path-1"></use>
                <use fill="#EFEFEF" xlink:href="#path-1"></use>
            </g>
            <path d="M0,22 C0,9.84974 9.84974,0 22,0 C34.15026,0 44,9.84974 44,22 C44,34.15026 34.15026,44 22,44 C9.84974,44 0,34.15026 0,22 Z" id="base-1-1-1"></path>
            <rect id="矩形" x="0" y="0" width="44" height="22"></rect>
            <polygon id="路径" points="0 22 0 0 44 0 44 22"></polygon>
            <polygon id="路径" points="0 22 0 0 44 0 44 22"></polygon>
            <polygon id="路径" points="0 22 0 0 44 0 44 22"></polygon>
            <polygon id="路径" points="0 22 0 0 44 0 44 22"></polygon>
        </g>
    </g>
</svg>